HIERARCHY
ROOT reference
{
  OFFSET 0 0 0
  CHANNELS 6 Xposition Yposition Zposition Zrotation Xrotation Yrotation
  JOINT Hips
  {
    OFFSET 7.03251 94.7038 98.073
    CHANNELS 6 Xposition Yposition Zposition Zrotation Xrotation Yrotation
    JOINT Spine
    {
      OFFSET 0 7.86299 0
      CHANNELS 6 Xposition Yposition Zposition Zrotation Xrotation Yrotation
      JOINT Spine1
      {
        OFFSET 0 22.6654 0
        CHANNELS 6 Xposition Yposition Zposition Zrotation Xrotation Yrotation
        JOINT Neck
        {
          OFFSET 0 22.5723 2.05203
          CHANNELS 6 Xposition Yposition Zposition Zrotation Xrotation Yrotation
          JOINT Head
          {
            OFFSET 0 13.4246 -1.9178
            CHANNELS 6 Xposition Yposition Zposition Zrotation Xrotation Yrotation
            End Site
            {
              OFFSET 0 23.9725 0
            }
          }
        }
        JOINT LeftShoulder
        {
          OFFSET 3.7941 20.1358 -0.319195
          CHANNELS 6 Xposition Yposition Zposition Zrotation Xrotation Yrotation
          JOINT LeftArm
          {
            OFFSET 12.7665 0 0
            CHANNELS 6 Xposition Yposition Zposition Zrotation Xrotation Yrotation
            JOINT LeftForeArm
            {
              OFFSET 28.396 0 0
              CHANNELS 6 Xposition Yposition Zposition Zrotation Xrotation Yrotation
              JOINT LeftHand
              {
                OFFSET 28.7929 0 0
                CHANNELS 6 Xposition Yposition Zposition Zrotation Xrotation Yrotation
                End Site
                {
                  OFFSET 14.3835 0 0
                }
              }
            }
          }
        }
        JOINT RightShoulder
        {
          OFFSET -3.85764 20.1358 -0.319195
          CHANNELS 6 Xposition Yposition Zposition Zrotation Xrotation Yrotation
          JOINT RightArm
          {
            OFFSET -12.7665 0 0
            CHANNELS 6 Xposition Yposition Zposition Zrotation Xrotation Yrotation
            JOINT RightForeArm
            {
              OFFSET -28.396 0 0
              CHANNELS 6 Xposition Yposition Zposition Zrotation Xrotation Yrotation
              JOINT RightHand
              {
                OFFSET -28.7929 0 0
                CHANNELS 6 Xposition Yposition Zposition Zrotation Xrotation Yrotation
                End Site
                {
                  OFFSET -14.3835 0 0
                }
              }
            }
          }
        }
      }
    }
    JOINT LeftUpLeg
    {
      OFFSET 9.58901 0 0
      CHANNELS 6 Xposition Yposition Zposition Zrotation Xrotation Yrotation
      JOINT LeftLeg
      {
        OFFSET 0 -41.7092 0
        CHANNELS 6 Xposition Yposition Zposition Zrotation Xrotation Yrotation
        JOINT LeftFoot
        {
          OFFSET 0 -41.5308 0
          CHANNELS 6 Xposition Yposition Zposition Zrotation Xrotation Yrotation
          JOINT LeftToeBase
          {
            OFFSET 0 -6.23286 14.3835
            CHANNELS 6 Xposition Yposition Zposition Zrotation Xrotation Yrotation
            End Site
            {
              OFFSET 0 0 3.8356
            }
          }
        }
      }
    }
    JOINT RightUpLeg
    {
      OFFSET -9.58901 0 0
      CHANNELS 6 Xposition Yposition Zposition Zrotation Xrotation Yrotation
      JOINT RightLeg
      {
        OFFSET 0 -41.7092 0
        CHANNELS 6 Xposition Yposition Zposition Zrotation Xrotation Yrotation
        JOINT RightFoot
        {
          OFFSET 0 -41.5308 0
          CHANNELS 6 Xposition Yposition Zposition Zrotation Xrotation Yrotation
          JOINT RightToeBase
          {
            OFFSET 0 -6.23286 14.3835
            CHANNELS 6 Xposition Yposition Zposition Zrotation Xrotation Yrotation
            End Site
            {
              OFFSET 0 0 3.8356
            }
          }
        }
      }
    }
  }
}
MOTION
Frames:	4
Frame Time:	0.004
0 0 0 0 0 -0 -4.81311 46.5506 -196.589 -19.7002 15.7035 15.2664 0 7.86299 2.84217e-014 22.0176 41.3429 -9.11227 0 22.6654 0 -2.15642 11.841 -0.492681 -1.77636e-015 22.5723 2.05203 5.55567 20.9654 -4.0446 8.88178e-016 13.4246 -1.9178 -0.991956 -2.84955 -4.12398 3.7941 20.1358 -0.319195 0.0175431 12.885 -23.6327 12.7665 0 0 -12.3113 -4.87071 -35.9008 28.396 0 -1.42109e-014 -4.1776 -18.9897 -19.4722 28.7929 1.42109e-014 1.42109e-014 46.699 -11.5013 19.4321 -3.85764 20.1358 -0.319195 2.257 19.0341 38.8409 -12.7665 0 1.42109e-014 -1.50779 -0.10409 24.4518 -28.396 -2.84217e-014 7.10543e-015 -5.87343 -14.115 18.228 -28.7929 0 7.10543e-015 -38.9162 -2.84019 -28.9358 9.58901 7.10543e-015 0 22.717 -23.0751 -10.2528 0 -41.7092 -2.84217e-014 -156.522 73.6882 127.526 0 -41.5308 -3.55271e-015 10.4977 -22.3304 11.9885 0 -6.23286 14.3835 -2.56558e-031 3.18055e-015 4.62174e-015 -9.58901 7.10543e-015 0 -23.2652 -64.5475 -38.736 0 -41.7092 -1.42109e-014 160.913 57.2712 -124.081 1.77636e-015 -41.5308 0 -20.9024 -39.0663 -22.7377 0 -6.23286 14.3835 1.41634e-015 9.54166e-015 1.73937e-016 
0 0 0 0 0 -0 -4.78472 46.3529 -196.556 -19.7632 15.495 15.158 -7.10543e-015 7.86299 2.84217e-014 22.0241 41.2495 -9.07686 8.88178e-016 22.6654 -2.84217e-014 -2.10599 11.8929 -0.47965 3.55271e-015 22.5723 2.05203 5.56162 21.007 -4.01069 -1.77636e-015 13.4246 -1.9178 -1.08527 -2.83885 -4.10167 3.7941 20.1358 -0.319195 0.0256602 13.0695 -23.6001 12.7665 0 1.42109e-014 -12.326 -4.70922 -35.878 28.396 0 0 -4.14507 -19.0682 -19.5375 28.7929 1.42109e-014 0 46.7957 -11.4975 19.5751 -3.85764 20.1358 -0.319195 2.22685 19.1005 38.8324 -12.7665 0 -7.10543e-015 -1.47745 0.009791 24.5046 -28.396 -5.68434e-014 7.10543e-015 -5.82964 -14.1188 18.1813 -28.7929 0 0 -38.8865 -2.86974 -28.9159 9.58901 -7.10543e-015 0 22.7536 -22.9506 -10.2324 -1.77636e-015 -41.7092 0 -157.07 73.3928 127.818 0 -41.5308 0 10.7555 -21.8172 12.3308 0 -6.23286 14.3835 -7.95139e-016 0 4.47266e-016 -9.58901 7.10543e-015 2.84217e-014 -22.9476 -64.5338 -38.4286 0 -41.7092 0 161.025 56.8915 -123.978 -3.55271e-015 -41.5308 0 -21.4165 -38.8699 -23.342 1.77636e-015 -6.23286 14.3835 5.66536e-015 0 -2.60905e-016 
0 0 0 0 0 -0 -4.74369 46.1469 -196.535 -19.7945 15.2882 15.0548 0 7.86299 2.84217e-014 22.0495 41.1585 -9.06764 -8.88178e-016 22.6654 2.84217e-014 -2.07192 11.9311 -0.475423 0 22.5723 2.05203 5.59676 21.1002 -3.98642 1.77636e-015 13.4246 -1.9178 -1.18206 -2.85779 -4.08607 3.7941 20.1358 -0.319195 0.0449933 13.2495 -23.5686 12.7665 2.84217e-014 0 -12.5615 -4.78161 -35.9335 28.396 2.84217e-014 -1.42109e-014 -4.08881 -19.0022 -19.4821 28.7929 0 0 46.8314 -11.4201 19.5527 -3.85764 20.1358 -0.319195 2.13215 19.2244 38.8065 -12.7665 -2.84217e-014 7.10543e-015 -1.41858 0.023588 24.5989 -28.396 -2.84217e-014 0 -5.79338 -14.0824 18.1275 -28.7929 0 0 -38.8497 -2.86591 -28.8782 9.58901 0 2.84217e-014 22.7286 -22.8422 -10.2278 3.55271e-015 -41.7092 0 -157.573 73.0882 128.081 0 -41.5308 3.55271e-015 11.0519 -21.2664 12.6668 0 -6.23286 14.3835 1.98785e-016 -1.59028e-015 -2.88238e-015 -9.58901 0 0 -22.719 -64.527 -38.2636 0 -41.7092 1.42109e-014 161.31 56.5442 -124.079 2.66454e-015 -41.5308 0 -21.8073 -38.7181 -23.8407 -1.77636e-015 -6.23286 14.3835 3.21783e-015 3.18055e-015 -2.91965e-016 
0 0 0 0 0 -0 -4.7097 45.9486 -196.519 -19.8142 15.102 14.9379 -7.10543e-015 7.86299 2.84217e-014 22.0089 41.0935 -9.02254 1.77636e-015 22.6654 0 -2.00116 11.9384 -0.475805 0 22.5723 2.05203 5.5495 21.1196 -3.94894 8.88178e-016 13.4246 -1.9178 -1.24919 -2.81458 -4.05897 3.7941 20.1358 -0.319195 0.060477 13.4257 -23.5336 12.7665 0 0 -12.6012 -4.57878 -35.9227 28.396 0 0 -3.99303 -19.0436 -19.5219 28.7929 1.42109e-014 0 46.7855 -11.4115 19.6579 -3.85764 20.1358 -0.319195 2.09858 19.3577 38.7601 -12.7665 0 -7.10543e-015 -1.43855 0.102448 24.6881 -28.396 0 0 -5.75965 -14.0789 18.0721 -28.7929 2.84217e-014 7.10543e-015 -38.8511 -2.86838 -28.883 9.58901 7.10543e-015 0 22.7022 -22.7486 -10.1894 0 -41.7092 -2.84217e-014 -158.155 72.8022 128.475 0 -41.5308 0 11.2447 -20.765 12.9055 -8.88178e-016 -6.23286 14.3835 3.97569e-016 -1.59028e-015 2.98177e-016 -9.58901 -7.10543e-015 0 -22.3357 -64.7162 -38.1709 0 -41.7092 2.84217e-014 161.988 56.3392 -125.632 -8.88178e-016 -41.5308 0 -21.318 -38.8873 -23.2215 0 -6.23286 14.3835 -2.60206e-015 6.36111e-015 -1.82478e-017 
